# xmcd
#
# Track frame offsets: 
#        150
#        20058
#        37407
#        56671
#        73507
#        92195
#        108156
#        125648
#        148851
#        166055
#
# Disc length: 2454 seconds
#
# Revision: 0
# Processed by: cddbd v1.5.2PL0 Copyright (c) Steve Scherf et al.
# Submitted via: ExactAudioCopy v1.0b4
#
DISCID=9309940a
DTITLE=The Fabulous Thunderbirds - Strong Like That
DYEAR=2016
DGENRE=Blues
TTITLE0=(I Know) I'm Losing You
TTITLE1=Don't Burn Me
TTITLE2=You're Gonna Miss Me
TTITLE3=Drowning On Dry Land
TTITLE4=Smooth
TTITLE5=Somebody's Getting It
TTITLE6=Meet Me On The Corner
TTITLE7=Where's Your Love Been
TTITLE8=I've Never Found A Girl (To Love Me Like You Do)
TTITLE9=Strong Like That
EXTD=
EXTT0=
EXTT1=
EXTT2=
EXTT3=
EXTT4=
EXTT5=
EXTT6=
EXTT7=
EXTT8=
EXTT9=
PLAYORDER=
